<?xml version="1.0" encoding="utf-8"?>
<!-- Generator: Adobe Illustrator 19.0.0, SVG Export Plug-In . SVG Version: 6.00 Build 0)  -->
<svg version="1.1" id="udacity-logo" xmlns="http://www.w3.org/2000/svg" xmlns:xlink="http://www.w3.org/1999/xlink" x="0px"
	 y="0px" viewBox="0 0 500 500" style="enable-background:new 0 0 500 500;" xml:space="preserve">
<style type="text/css">
	.st0{fill:#EC7522;}
	.st1{fill:none;stroke:#EC7522;stroke-width:36;stroke-miterlimit:10;}
</style>
<path id="udacity-u" class="st0" d="M150.028,160.418c10.297,0.001,20.594-0.018,30.891,0.019c1.767,0.006,3.534,0.238,5.3,0.39
	c1.29,0.111,2.449,0.468,2.773,1.945c0.342,1.561-0.599,2.436-1.8,3.089c-2.492,1.355-5.242,1.862-7.997,2.331
	c-2.685,0.458-5.38,0.877-7.989,1.688c-4.388,1.363-6.263,3.784-6.403,8.333c-1.249,40.775-0.848,81.556-0.408,122.337
	c0.131,12.169,1.061,24.197,3.97,36.077c4.499,18.373,16.225,29.499,34.098,34.358c19.03,5.174,38.261,5.361,57.466,0.955
	c7.095-1.628,14.103-3.743,20.24-7.924c10.668-7.269,16.424-17.65,19.34-29.991c1.772-7.502,2.276-15.079,2.418-22.716
	c0.657-35.254,0.711-70.514,0.92-105.773c0.117-19.846,0.268-39.692,0.344-59.538c0.008-2.157,0.352-4.148,1.194-6.135
	c1.647-3.891,3.222-7.801,5.728-11.258c5.644-7.786,13.461-11.837,22.829-12.746c12.982-1.259,26.028-0.729,39.049-0.824
	c5.183-0.038,10.367,0.033,15.549-0.034c1.259-0.016,1.611,0.345,1.619,1.604c0.026,4.121-0.466,5.005-4.603,5.856
	c-5.133,1.056-10.335,1.771-15.48,2.775c-7.25,1.414-8.535,2.949-9.056,10.254c-1.37,19.207-0.795,38.447-0.902,57.673
	c-0.195,34.918-0.173,69.837-0.366,104.755c-0.062,11.247-0.046,22.535-1.592,33.696c-4.21,30.381-20.779,51.024-49.584,61.586
	c-11.798,4.326-24.229,5.697-36.688,6.632c-15.659,1.175-31.375,1.573-47.019,0.682c-16.197-0.923-32.445-3.001-47.336-9.964
	c-22.836-10.678-37.293-28.361-42.42-53.362c-2.429-11.847-2.584-23.835-2.735-35.827c-0.516-41.055-0.407-82.112-0.335-123.169
	c0.004-2.316-0.63-3.926-2.309-5.493c-2.341-2.184-5.046-3.426-8.093-4.078c-2.334-0.499-4.654-1.026-6.82-2.073
	c-0.804-0.389-1.566-0.841-2.159-1.517c-1.501-1.714-0.883-3.737,1.366-4.104c1.944-0.317,3.933-0.481,5.904-0.49
	C129.297,160.393,139.663,160.417,150.028,160.418z"/>
<circle id="udacity-circle" class="st1" cx="250" cy="250" r="231.5"/>
</svg>
